<?xml version="1.0" encoding="UTF-8"?>
<svg version="1.1" xmlns="http://www.w3.org/2000/svg" width="495" height="367">
<path d="M0 0 C1.64392913 -0.00346512 3.28785593 -0.00823537 4.93177795 -0.01418173 C9.4068194 -0.02660419 13.88166676 -0.02056166 18.35670853 -0.01122308 C23.19932563 -0.00439671 28.04191085 -0.0149315 32.88452148 -0.02316284 C42.35449128 -0.03646428 51.82438953 -0.03363848 61.29436207 -0.02492492 C68.99458717 -0.01813461 76.69479229 -0.01723747 84.39501953 -0.02049637 C85.49325011 -0.02095607 86.59148069 -0.02141577 87.72299099 -0.0218894 C89.95440802 -0.02284863 92.18582504 -0.02382127 94.41724205 -0.02480717 C115.31427583 -0.03335055 136.21127006 -0.02354346 157.10829735 -0.00740607 C175.01753053 0.00599614 192.92670537 0.00366776 210.8359375 -0.01016235 C231.66100524 -0.02623676 252.48603837 -0.03252668 273.31111145 -0.02332556 C275.53406778 -0.02236997 277.75702412 -0.02142686 279.97998047 -0.02049637 C281.07356086 -0.02003354 282.16714125 -0.01957072 283.29386044 -0.01909386 C290.97993238 -0.01650956 298.66598226 -0.02086288 306.35205078 -0.02793503 C315.72581322 -0.03637092 325.09950034 -0.03402606 334.4732542 -0.0180928 C339.2508375 -0.01023816 344.02829547 -0.00707033 348.80587769 -0.01704025 C353.18795284 -0.02604616 357.56978769 -0.02095829 361.95184135 -0.0051076 C363.52836307 -0.00178456 365.10490551 -0.00339727 366.68141365 -0.01073496 C384.2476226 -0.08615795 401.57216429 2.12894539 415.125 14.44345093 C426.18524817 26.61590282 429.91866253 42.73005802 429.46484375 58.84970093 C428.3350935 73.23412663 424.44695466 87.74747434 413.3359375 97.70907593 C401.81895869 106.67137944 388.68999112 110.49725557 374.15235138 110.51237869 C373.47679569 110.51443133 372.80124 110.51648396 372.10521293 110.51859879 C369.84913537 110.52423806 367.59311946 110.52281537 365.33703613 110.52139282 C363.70001388 110.52397823 362.06299226 110.52699188 360.42597151 110.53039622 C355.93291661 110.53844897 351.4398777 110.54025483 346.94681644 110.54099369 C342.09861385 110.54284728 337.2504195 110.5503962 332.40222168 110.55712891 C321.80279465 110.57070095 311.20337142 110.57673532 300.60393715 110.58113956 C293.98229009 110.58390415 287.36064449 110.58814192 280.73899841 110.59264374 C262.39649802 110.60483541 244.0539988 110.61513461 225.71149445 110.61851883 C224.53790445 110.6187384 223.36431445 110.61895796 222.15516111 110.61918418 C220.9788004 110.61940246 219.80243969 110.61962074 218.59043169 110.61984563 C216.20677217 110.62028909 213.82311265 110.62073565 211.43945312 110.6211853 C210.25708161 110.62140673 209.0747101 110.62162816 207.85650915 110.6218563 C188.70675216 110.62580257 169.55703327 110.64325183 150.407291 110.66654482 C130.73460956 110.69028021 111.06194722 110.70272169 91.38925123 110.70388675 C80.34863682 110.70480233 69.30807203 110.71052508 58.26747131 110.72870636 C48.86424643 110.74413694 39.46108651 110.74921041 30.05785137 110.74096826 C25.26411471 110.7370721 20.47050875 110.7379406 15.67678833 110.7520256 C11.27960181 110.76482679 6.88264337 110.76351288 2.48545688 110.75143489 C0.90330791 110.74948859 -0.67885756 110.75250637 -2.26098341 110.76127926 C-20.83181509 110.85765055 -37.69489379 108.18153382 -51.625 94.78720093 C-62.26997375 83.0777298 -65.19885903 67.58303493 -65.01953125 52.19345093 C-64.21192463 37.32129875 -59.75162926 22.62259629 -48.44140625 12.34579468 C-33.88400044 1.4655939 -17.57348913 -0.08179396 0 0 Z " fill="#FEFEFE" transform="translate(65.8125,256.6190490722656)"/>
<path d="M0 0 C1.64392913 -0.00346512 3.28785593 -0.00823537 4.93177795 -0.01418173 C9.4068194 -0.02660419 13.88166676 -0.02056166 18.35670853 -0.01122308 C23.19932563 -0.00439671 28.04191085 -0.0149315 32.88452148 -0.02316284 C42.35449128 -0.03646428 51.82438953 -0.03363848 61.29436207 -0.02492492 C68.99458717 -0.01813461 76.69479229 -0.01723747 84.39501953 -0.02049637 C85.49325011 -0.02095607 86.59148069 -0.02141577 87.72299099 -0.0218894 C89.95440802 -0.02284863 92.18582504 -0.02382127 94.41724205 -0.02480717 C115.31427583 -0.03335055 136.21127006 -0.02354346 157.10829735 -0.00740607 C175.01753053 0.00599614 192.92670537 0.00366776 210.8359375 -0.01016235 C231.66100524 -0.02623676 252.48603837 -0.03252668 273.31111145 -0.02332556 C275.53406778 -0.02236997 277.75702412 -0.02142686 279.97998047 -0.02049637 C281.07356086 -0.02003354 282.16714125 -0.01957072 283.29386044 -0.01909386 C290.97993238 -0.01650956 298.66598226 -0.02086288 306.35205078 -0.02793503 C315.72581322 -0.03637092 325.09950034 -0.03402606 334.4732542 -0.0180928 C339.2508375 -0.01023816 344.02829547 -0.00707033 348.80587769 -0.01704025 C353.18795284 -0.02604616 357.56978769 -0.02095829 361.95184135 -0.0051076 C363.52836307 -0.00178456 365.10490551 -0.00339727 366.68141365 -0.01073496 C384.2476226 -0.08615795 401.57216429 2.12894539 415.125 14.44345093 C426.18524817 26.61590282 429.91866253 42.73005802 429.46484375 58.84970093 C428.3350935 73.23412663 424.44695466 87.74747434 413.3359375 97.70907593 C401.81895869 106.67137944 388.68999112 110.49725557 374.15235138 110.51237869 C373.47679569 110.51443133 372.80124 110.51648396 372.10521293 110.51859879 C369.84913537 110.52423806 367.59311946 110.52281537 365.33703613 110.52139282 C363.70001388 110.52397823 362.06299226 110.52699188 360.42597151 110.53039622 C355.93291661 110.53844897 351.4398777 110.54025483 346.94681644 110.54099369 C342.09861385 110.54284728 337.2504195 110.5503962 332.40222168 110.55712891 C321.80279465 110.57070095 311.20337142 110.57673532 300.60393715 110.58113956 C293.98229009 110.58390415 287.36064449 110.58814192 280.73899841 110.59264374 C262.39649802 110.60483541 244.0539988 110.61513461 225.71149445 110.61851883 C224.53790445 110.6187384 223.36431445 110.61895796 222.15516111 110.61918418 C220.9788004 110.61940246 219.80243969 110.61962074 218.59043169 110.61984563 C216.20677217 110.62028909 213.82311265 110.62073565 211.43945312 110.6211853 C210.25708161 110.62140673 209.0747101 110.62162816 207.85650915 110.6218563 C188.70675216 110.62580257 169.55703327 110.64325183 150.407291 110.66654482 C130.73460956 110.69028021 111.06194722 110.70272169 91.38925123 110.70388675 C80.34863682 110.70480233 69.30807203 110.71052508 58.26747131 110.72870636 C48.86424643 110.74413694 39.46108651 110.74921041 30.05785137 110.74096826 C25.26411471 110.7370721 20.47050875 110.7379406 15.67678833 110.7520256 C11.27960181 110.76482679 6.88264337 110.76351288 2.48545688 110.75143489 C0.90330791 110.74948859 -0.67885756 110.75250637 -2.26098341 110.76127926 C-20.83181509 110.85765055 -37.69489379 108.18153382 -51.625 94.78720093 C-62.26997375 83.0777298 -65.19885903 67.58303493 -65.01953125 52.19345093 C-64.21192463 37.32129875 -59.75162926 22.62259629 -48.44140625 12.34579468 C-33.88400044 1.4655939 -17.57348913 -0.08179396 0 0 Z " fill="#FEFEFE" transform="translate(65.8125,128.61904907226563)"/>
<path d="M0 0 C1.64392913 -0.00346512 3.28785593 -0.00823537 4.93177795 -0.01418173 C9.4068194 -0.02660419 13.88166676 -0.02056166 18.35670853 -0.01122308 C23.19932563 -0.00439671 28.04191085 -0.0149315 32.88452148 -0.02316284 C42.35449128 -0.03646428 51.82438953 -0.03363848 61.29436207 -0.02492492 C68.99458717 -0.01813461 76.69479229 -0.01723747 84.39501953 -0.02049637 C85.49325011 -0.02095607 86.59148069 -0.02141577 87.72299099 -0.0218894 C89.95440802 -0.02284863 92.18582504 -0.02382127 94.41724205 -0.02480717 C115.31427583 -0.03335055 136.21127006 -0.02354346 157.10829735 -0.00740607 C175.01753053 0.00599614 192.92670537 0.00366776 210.8359375 -0.01016235 C231.66100524 -0.02623676 252.48603837 -0.03252668 273.31111145 -0.02332556 C275.53406778 -0.02236997 277.75702412 -0.02142686 279.97998047 -0.02049637 C281.07356086 -0.02003354 282.16714125 -0.01957072 283.29386044 -0.01909386 C290.97993238 -0.01650956 298.66598226 -0.02086288 306.35205078 -0.02793503 C315.72581322 -0.03637092 325.09950034 -0.03402606 334.4732542 -0.0180928 C339.2508375 -0.01023816 344.02829547 -0.00707033 348.80587769 -0.01704025 C353.18795284 -0.02604616 357.56978769 -0.02095829 361.95184135 -0.0051076 C363.52836307 -0.00178456 365.10490551 -0.00339727 366.68141365 -0.01073496 C384.2476226 -0.08615795 401.57216429 2.12894539 415.125 14.44345093 C426.18524817 26.61590282 429.91866253 42.73005802 429.46484375 58.84970093 C428.3350935 73.23412663 424.44695466 87.74747434 413.3359375 97.70907593 C401.81895869 106.67137944 388.68999112 110.49725557 374.15235138 110.51237869 C373.47679569 110.51443133 372.80124 110.51648396 372.10521293 110.51859879 C369.84913537 110.52423806 367.59311946 110.52281537 365.33703613 110.52139282 C363.70001388 110.52397823 362.06299226 110.52699188 360.42597151 110.53039622 C355.93291661 110.53844897 351.4398777 110.54025483 346.94681644 110.54099369 C342.09861385 110.54284728 337.2504195 110.5503962 332.40222168 110.55712891 C321.80279465 110.57070095 311.20337142 110.57673532 300.60393715 110.58113956 C293.98229009 110.58390415 287.36064449 110.58814192 280.73899841 110.59264374 C262.39649802 110.60483541 244.0539988 110.61513461 225.71149445 110.61851883 C224.53790445 110.6187384 223.36431445 110.61895796 222.15516111 110.61918418 C220.9788004 110.61940246 219.80243969 110.61962074 218.59043169 110.61984563 C216.20677217 110.62028909 213.82311265 110.62073565 211.43945312 110.6211853 C210.25708161 110.62140673 209.0747101 110.62162816 207.85650915 110.6218563 C188.70675216 110.62580257 169.55703327 110.64325183 150.407291 110.66654482 C130.73460956 110.69028021 111.06194722 110.70272169 91.38925123 110.70388675 C80.34863682 110.70480233 69.30807203 110.71052508 58.26747131 110.72870636 C48.86424643 110.74413694 39.46108651 110.74921041 30.05785137 110.74096826 C25.26411471 110.7370721 20.47050875 110.7379406 15.67678833 110.7520256 C11.27960181 110.76482679 6.88264337 110.76351288 2.48545688 110.75143489 C0.90330791 110.74948859 -0.67885756 110.75250637 -2.26098341 110.76127926 C-20.83181509 110.85765055 -37.69489379 108.18153382 -51.625 94.78720093 C-62.26997375 83.0777298 -65.19885903 67.58303493 -65.01953125 52.19345093 C-64.21192463 37.32129875 -59.75162926 22.62259629 -48.44140625 12.34579468 C-33.88400044 1.4655939 -17.57348913 -0.08179396 0 0 Z " fill="#FEFEFE" transform="translate(65.8125,0.619049072265625)"/>
<path d="M0 0 C1.64392913 -0.00346512 3.28785593 -0.00823537 4.93177795 -0.01418173 C9.4068194 -0.02660419 13.88166676 -0.02056166 18.35670853 -0.01122308 C23.19932563 -0.00439671 28.04191085 -0.0149315 32.88452148 -0.02316284 C42.35449128 -0.03646428 51.82438953 -0.03363848 61.29436207 -0.02492492 C68.99458717 -0.01813461 76.69479229 -0.01723747 84.39501953 -0.02049637 C85.49325011 -0.02095607 86.59148069 -0.02141577 87.72299099 -0.0218894 C89.95440802 -0.02284863 92.18582504 -0.02382127 94.41724205 -0.02480717 C115.31427583 -0.03335055 136.21127006 -0.02354346 157.10829735 -0.00740607 C175.01753053 0.00599614 192.92670537 0.00366776 210.8359375 -0.01016235 C231.66100524 -0.02623676 252.48603837 -0.03252668 273.31111145 -0.02332556 C275.53406778 -0.02236997 277.75702412 -0.02142686 279.97998047 -0.02049637 C281.07356086 -0.02003354 282.16714125 -0.01957072 283.29386044 -0.01909386 C290.97993238 -0.01650956 298.66598226 -0.02086288 306.35205078 -0.02793503 C315.72581322 -0.03637092 325.09950034 -0.03402606 334.4732542 -0.0180928 C339.2508375 -0.01023816 344.02829547 -0.00707033 348.80587769 -0.01704025 C353.18795284 -0.02604616 357.56978769 -0.02095829 361.95184135 -0.0051076 C363.52836307 -0.00178456 365.10490551 -0.00339727 366.68141365 -0.01073496 C384.2476226 -0.08615795 401.57216429 2.12894539 415.125 14.44345093 C426.18524817 26.61590282 429.91866253 42.73005802 429.46484375 58.84970093 C428.3350935 73.23412663 424.44695466 87.74747434 413.3359375 97.70907593 C401.81895869 106.67137944 388.68999112 110.49725557 374.15235138 110.51237869 C373.47679569 110.51443133 372.80124 110.51648396 372.10521293 110.51859879 C369.84913537 110.52423806 367.59311946 110.52281537 365.33703613 110.52139282 C363.70001388 110.52397823 362.06299226 110.52699188 360.42597151 110.53039622 C355.93291661 110.53844897 351.4398777 110.54025483 346.94681644 110.54099369 C342.09861385 110.54284728 337.2504195 110.5503962 332.40222168 110.55712891 C321.80279465 110.57070095 311.20337142 110.57673532 300.60393715 110.58113956 C293.98229009 110.58390415 287.36064449 110.58814192 280.73899841 110.59264374 C262.39649802 110.60483541 244.0539988 110.61513461 225.71149445 110.61851883 C224.53790445 110.6187384 223.36431445 110.61895796 222.15516111 110.61918418 C220.9788004 110.61940246 219.80243969 110.61962074 218.59043169 110.61984563 C216.20677217 110.62028909 213.82311265 110.62073565 211.43945312 110.6211853 C210.25708161 110.62140673 209.0747101 110.62162816 207.85650915 110.6218563 C188.70675216 110.62580257 169.55703327 110.64325183 150.407291 110.66654482 C130.73460956 110.69028021 111.06194722 110.70272169 91.38925123 110.70388675 C80.34863682 110.70480233 69.30807203 110.71052508 58.26747131 110.72870636 C48.86424643 110.74413694 39.46108651 110.74921041 30.05785137 110.74096826 C25.26411471 110.7370721 20.47050875 110.7379406 15.67678833 110.7520256 C11.27960181 110.76482679 6.88264337 110.76351288 2.48545688 110.75143489 C0.90330791 110.74948859 -0.67885756 110.75250637 -2.26098341 110.76127926 C-20.83181509 110.85765055 -37.69489379 108.18153382 -51.625 94.78720093 C-62.26997375 83.0777298 -65.19885903 67.58303493 -65.01953125 52.19345093 C-64.21192463 37.32129875 -59.75162926 22.62259629 -48.44140625 12.34579468 C-33.88400044 1.4655939 -17.57348913 -0.08179396 0 0 Z M-38.8125 32.38095093 C-44.2365598 41.11899476 -46.05133415 49.11193726 -44.8125 59.38095093 C-42.06166803 68.54342668 -37.02133265 75.85763924 -28.69921875 80.58016968 C-23.41942865 83.3310658 -19.28218338 84.50643838 -13.26674938 84.52355194 C-12.25988952 84.52842847 -12.25988952 84.52842847 -11.23268905 84.53340352 C-8.96722466 84.54312342 -6.70180803 84.54569799 -4.43632507 84.54830933 C-2.80204165 84.55375458 -1.16775958 84.55961791 0.46652097 84.56586504 C4.97053605 84.58173852 9.47454568 84.59123885 13.97858012 84.59962988 C17.83880909 84.60762741 21.69902329 84.61931943 25.55924246 84.63104469 C39.38973619 84.672981 53.22024729 84.70016546 67.05078125 84.72470093 C68.14239499 84.72667583 69.23400873 84.72865073 70.35870168 84.73068547 C92.03472181 84.76985365 113.71074768 84.80355872 135.38679218 84.82576752 C140.15410178 84.83073684 144.92141128 84.83578116 149.6887207 84.84091187 C150.87361653 84.84218254 152.05851236 84.84345321 153.27931412 84.84476238 C172.46240197 84.86611021 191.64531821 84.91509173 210.82831977 84.97515601 C230.52459671 85.03631847 250.22078522 85.07096159 269.91715592 85.08024073 C280.97523148 85.08614766 292.0330166 85.10386194 303.0909977 85.15162659 C312.51161555 85.19228096 321.93189555 85.20908482 331.35259721 85.19497377 C336.15653651 85.18851814 340.95975667 85.19326463 345.76358414 85.2288475 C350.1692168 85.26121751 354.57362749 85.26072245 358.97929289 85.23503047 C360.56559822 85.23140294 362.15198636 85.23941167 363.73815147 85.26081198 C375.36206761 85.40807823 385.19067291 83.34911923 394.30679494 75.57323027 C401.40382995 68.18596922 403.58466617 58.13942797 403.46484375 48.22079468 C402.66578401 40.03887309 397.53638204 32.32052642 391.52734375 26.87704468 C382.41448923 19.92304408 373.17300324 19.94786574 362.18313599 19.99327087 C360.54168422 19.98909553 358.90023534 19.98361691 357.2587918 19.97695106 C352.75828865 19.96250401 348.25796874 19.96673888 343.75745559 19.97411788 C338.8998097 19.97884908 334.04220348 19.96634009 329.18457031 19.95610046 C319.6718757 19.93890607 310.15924713 19.93807381 300.64654101 19.94331337 C292.91416338 19.94735519 285.18180526 19.94591136 277.44942856 19.94056511 C276.34880593 19.93981669 275.24818331 19.93906827 274.11420848 19.93829716 C271.87827206 19.93676568 269.64233565 19.93522733 267.40639924 19.9336822 C246.43897035 19.91995478 225.47157877 19.9253965 204.50415073 19.93686741 C185.32519387 19.94679951 166.14633349 19.93385991 146.96739151 19.90993322 C127.27096376 19.88554621 107.57458096 19.8759334 87.87813842 19.88258594 C76.82148233 19.88607911 65.76490044 19.88383965 54.70825577 19.86633492 C45.29573796 19.85161792 35.8833466 19.85097095 26.47083129 19.86840583 C21.66957587 19.87692239 16.86854638 19.87904929 12.0673027 19.86375427 C7.66911217 19.84991682 3.27134133 19.85465821 -1.12682487 19.87399351 C-2.71490805 19.87775672 -4.30302478 19.87482225 -5.8910781 19.86438186 C-19.34313705 19.78225666 -29.69477465 21.82453124 -38.8125 32.38095093 Z " fill="#000000" transform="translate(65.8125,256.6190490722656)"/>
<path d="M0 0 C1.64392913 -0.00346512 3.28785593 -0.00823537 4.93177795 -0.01418173 C9.4068194 -0.02660419 13.88166676 -0.02056166 18.35670853 -0.01122308 C23.19932563 -0.00439671 28.04191085 -0.0149315 32.88452148 -0.02316284 C42.35449128 -0.03646428 51.82438953 -0.03363848 61.29436207 -0.02492492 C68.99458717 -0.01813461 76.69479229 -0.01723747 84.39501953 -0.02049637 C85.49325011 -0.02095607 86.59148069 -0.02141577 87.72299099 -0.0218894 C89.95440802 -0.02284863 92.18582504 -0.02382127 94.41724205 -0.02480717 C115.31427583 -0.03335055 136.21127006 -0.02354346 157.10829735 -0.00740607 C175.01753053 0.00599614 192.92670537 0.00366776 210.8359375 -0.01016235 C231.66100524 -0.02623676 252.48603837 -0.03252668 273.31111145 -0.02332556 C275.53406778 -0.02236997 277.75702412 -0.02142686 279.97998047 -0.02049637 C281.07356086 -0.02003354 282.16714125 -0.01957072 283.29386044 -0.01909386 C290.97993238 -0.01650956 298.66598226 -0.02086288 306.35205078 -0.02793503 C315.72581322 -0.03637092 325.09950034 -0.03402606 334.4732542 -0.0180928 C339.2508375 -0.01023816 344.02829547 -0.00707033 348.80587769 -0.01704025 C353.18795284 -0.02604616 357.56978769 -0.02095829 361.95184135 -0.0051076 C363.52836307 -0.00178456 365.10490551 -0.00339727 366.68141365 -0.01073496 C384.2476226 -0.08615795 401.57216429 2.12894539 415.125 14.44345093 C426.18524817 26.61590282 429.91866253 42.73005802 429.46484375 58.84970093 C428.3350935 73.23412663 424.44695466 87.74747434 413.3359375 97.70907593 C401.81895869 106.67137944 388.68999112 110.49725557 374.15235138 110.51237869 C373.47679569 110.51443133 372.80124 110.51648396 372.10521293 110.51859879 C369.84913537 110.52423806 367.59311946 110.52281537 365.33703613 110.52139282 C363.70001388 110.52397823 362.06299226 110.52699188 360.42597151 110.53039622 C355.93291661 110.53844897 351.4398777 110.54025483 346.94681644 110.54099369 C342.09861385 110.54284728 337.2504195 110.5503962 332.40222168 110.55712891 C321.80279465 110.57070095 311.20337142 110.57673532 300.60393715 110.58113956 C293.98229009 110.58390415 287.36064449 110.58814192 280.73899841 110.59264374 C262.39649802 110.60483541 244.0539988 110.61513461 225.71149445 110.61851883 C224.53790445 110.6187384 223.36431445 110.61895796 222.15516111 110.61918418 C220.9788004 110.61940246 219.80243969 110.61962074 218.59043169 110.61984563 C216.20677217 110.62028909 213.82311265 110.62073565 211.43945312 110.6211853 C210.25708161 110.62140673 209.0747101 110.62162816 207.85650915 110.6218563 C188.70675216 110.62580257 169.55703327 110.64325183 150.407291 110.66654482 C130.73460956 110.69028021 111.06194722 110.70272169 91.38925123 110.70388675 C80.34863682 110.70480233 69.30807203 110.71052508 58.26747131 110.72870636 C48.86424643 110.74413694 39.46108651 110.74921041 30.05785137 110.74096826 C25.26411471 110.7370721 20.47050875 110.7379406 15.67678833 110.7520256 C11.27960181 110.76482679 6.88264337 110.76351288 2.48545688 110.75143489 C0.90330791 110.74948859 -0.67885756 110.75250637 -2.26098341 110.76127926 C-20.83181509 110.85765055 -37.69489379 108.18153382 -51.625 94.78720093 C-62.26997375 83.0777298 -65.19885903 67.58303493 -65.01953125 52.19345093 C-64.21192463 37.32129875 -59.75162926 22.62259629 -48.44140625 12.34579468 C-33.88400044 1.4655939 -17.57348913 -0.08179396 0 0 Z M-38.8125 32.38095093 C-44.2365598 41.11899476 -46.05133415 49.11193726 -44.8125 59.38095093 C-42.06166803 68.54342668 -37.02133265 75.85763924 -28.69921875 80.58016968 C-23.41942865 83.3310658 -19.28218338 84.50643838 -13.26674938 84.52355194 C-12.25988952 84.52842847 -12.25988952 84.52842847 -11.23268905 84.53340352 C-8.96722466 84.54312342 -6.70180803 84.54569799 -4.43632507 84.54830933 C-2.80204165 84.55375458 -1.16775958 84.55961791 0.46652097 84.56586504 C4.97053605 84.58173852 9.47454568 84.59123885 13.97858012 84.59962988 C17.83880909 84.60762741 21.69902329 84.61931943 25.55924246 84.63104469 C39.38973619 84.672981 53.22024729 84.70016546 67.05078125 84.72470093 C68.14239499 84.72667583 69.23400873 84.72865073 70.35870168 84.73068547 C92.03472181 84.76985365 113.71074768 84.80355872 135.38679218 84.82576752 C140.15410178 84.83073684 144.92141128 84.83578116 149.6887207 84.84091187 C150.87361653 84.84218254 152.05851236 84.84345321 153.27931412 84.84476238 C172.46240197 84.86611021 191.64531821 84.91509173 210.82831977 84.97515601 C230.52459671 85.03631847 250.22078522 85.07096159 269.91715592 85.08024073 C280.97523148 85.08614766 292.0330166 85.10386194 303.0909977 85.15162659 C312.51161555 85.19228096 321.93189555 85.20908482 331.35259721 85.19497377 C336.15653651 85.18851814 340.95975667 85.19326463 345.76358414 85.2288475 C350.1692168 85.26121751 354.57362749 85.26072245 358.97929289 85.23503047 C360.56559822 85.23140294 362.15198636 85.23941167 363.73815147 85.26081198 C375.36206761 85.40807823 385.19067291 83.34911923 394.30679494 75.57323027 C401.40382995 68.18596922 403.58466617 58.13942797 403.46484375 48.22079468 C402.66578401 40.03887309 397.53638204 32.32052642 391.52734375 26.87704468 C382.41448923 19.92304408 373.17300324 19.94786574 362.18313599 19.99327087 C360.54168422 19.98909553 358.90023534 19.98361691 357.2587918 19.97695106 C352.75828865 19.96250401 348.25796874 19.96673888 343.75745559 19.97411788 C338.8998097 19.97884908 334.04220348 19.96634009 329.18457031 19.95610046 C319.6718757 19.93890607 310.15924713 19.93807381 300.64654101 19.94331337 C292.91416338 19.94735519 285.18180526 19.94591136 277.44942856 19.94056511 C276.34880593 19.93981669 275.24818331 19.93906827 274.11420848 19.93829716 C271.87827206 19.93676568 269.64233565 19.93522733 267.40639924 19.9336822 C246.43897035 19.91995478 225.47157877 19.9253965 204.50415073 19.93686741 C185.32519387 19.94679951 166.14633349 19.93385991 146.96739151 19.90993322 C127.27096376 19.88554621 107.57458096 19.8759334 87.87813842 19.88258594 C76.82148233 19.88607911 65.76490044 19.88383965 54.70825577 19.86633492 C45.29573796 19.85161792 35.8833466 19.85097095 26.47083129 19.86840583 C21.66957587 19.87692239 16.86854638 19.87904929 12.0673027 19.86375427 C7.66911217 19.84991682 3.27134133 19.85465821 -1.12682487 19.87399351 C-2.71490805 19.87775672 -4.30302478 19.87482225 -5.8910781 19.86438186 C-19.34313705 19.78225666 -29.69477465 21.82453124 -38.8125 32.38095093 Z " fill="#000000" transform="translate(65.8125,128.61904907226563)"/>
<path d="M0 0 C1.64392913 -0.00346512 3.28785593 -0.00823537 4.93177795 -0.01418173 C9.4068194 -0.02660419 13.88166676 -0.02056166 18.35670853 -0.01122308 C23.19932563 -0.00439671 28.04191085 -0.0149315 32.88452148 -0.02316284 C42.35449128 -0.03646428 51.82438953 -0.03363848 61.29436207 -0.02492492 C68.99458717 -0.01813461 76.69479229 -0.01723747 84.39501953 -0.02049637 C85.49325011 -0.02095607 86.59148069 -0.02141577 87.72299099 -0.0218894 C89.95440802 -0.02284863 92.18582504 -0.02382127 94.41724205 -0.02480717 C115.31427583 -0.03335055 136.21127006 -0.02354346 157.10829735 -0.00740607 C175.01753053 0.00599614 192.92670537 0.00366776 210.8359375 -0.01016235 C231.66100524 -0.02623676 252.48603837 -0.03252668 273.31111145 -0.02332556 C275.53406778 -0.02236997 277.75702412 -0.02142686 279.97998047 -0.02049637 C281.07356086 -0.02003354 282.16714125 -0.01957072 283.29386044 -0.01909386 C290.97993238 -0.01650956 298.66598226 -0.02086288 306.35205078 -0.02793503 C315.72581322 -0.03637092 325.09950034 -0.03402606 334.4732542 -0.0180928 C339.2508375 -0.01023816 344.02829547 -0.00707033 348.80587769 -0.01704025 C353.18795284 -0.02604616 357.56978769 -0.02095829 361.95184135 -0.0051076 C363.52836307 -0.00178456 365.10490551 -0.00339727 366.68141365 -0.01073496 C384.2476226 -0.08615795 401.57216429 2.12894539 415.125 14.44345093 C426.18524817 26.61590282 429.91866253 42.73005802 429.46484375 58.84970093 C428.3350935 73.23412663 424.44695466 87.74747434 413.3359375 97.70907593 C401.81895869 106.67137944 388.68999112 110.49725557 374.15235138 110.51237869 C373.47679569 110.51443133 372.80124 110.51648396 372.10521293 110.51859879 C369.84913537 110.52423806 367.59311946 110.52281537 365.33703613 110.52139282 C363.70001388 110.52397823 362.06299226 110.52699188 360.42597151 110.53039622 C355.93291661 110.53844897 351.4398777 110.54025483 346.94681644 110.54099369 C342.09861385 110.54284728 337.2504195 110.5503962 332.40222168 110.55712891 C321.80279465 110.57070095 311.20337142 110.57673532 300.60393715 110.58113956 C293.98229009 110.58390415 287.36064449 110.58814192 280.73899841 110.59264374 C262.39649802 110.60483541 244.0539988 110.61513461 225.71149445 110.61851883 C224.53790445 110.6187384 223.36431445 110.61895796 222.15516111 110.61918418 C220.9788004 110.61940246 219.80243969 110.61962074 218.59043169 110.61984563 C216.20677217 110.62028909 213.82311265 110.62073565 211.43945312 110.6211853 C210.25708161 110.62140673 209.0747101 110.62162816 207.85650915 110.6218563 C188.70675216 110.62580257 169.55703327 110.64325183 150.407291 110.66654482 C130.73460956 110.69028021 111.06194722 110.70272169 91.38925123 110.70388675 C80.34863682 110.70480233 69.30807203 110.71052508 58.26747131 110.72870636 C48.86424643 110.74413694 39.46108651 110.74921041 30.05785137 110.74096826 C25.26411471 110.7370721 20.47050875 110.7379406 15.67678833 110.7520256 C11.27960181 110.76482679 6.88264337 110.76351288 2.48545688 110.75143489 C0.90330791 110.74948859 -0.67885756 110.75250637 -2.26098341 110.76127926 C-20.83181509 110.85765055 -37.69489379 108.18153382 -51.625 94.78720093 C-62.26997375 83.0777298 -65.19885903 67.58303493 -65.01953125 52.19345093 C-64.21192463 37.32129875 -59.75162926 22.62259629 -48.44140625 12.34579468 C-33.88400044 1.4655939 -17.57348913 -0.08179396 0 0 Z M-38.8125 32.38095093 C-44.2365598 41.11899476 -46.05133415 49.11193726 -44.8125 59.38095093 C-42.06166803 68.54342668 -37.02133265 75.85763924 -28.69921875 80.58016968 C-23.41942865 83.3310658 -19.28218338 84.50643838 -13.26674938 84.52355194 C-12.25988952 84.52842847 -12.25988952 84.52842847 -11.23268905 84.53340352 C-8.96722466 84.54312342 -6.70180803 84.54569799 -4.43632507 84.54830933 C-2.80204165 84.55375458 -1.16775958 84.55961791 0.46652097 84.56586504 C4.97053605 84.58173852 9.47454568 84.59123885 13.97858012 84.59962988 C17.83880909 84.60762741 21.69902329 84.61931943 25.55924246 84.63104469 C39.38973619 84.672981 53.22024729 84.70016546 67.05078125 84.72470093 C68.14239499 84.72667583 69.23400873 84.72865073 70.35870168 84.73068547 C92.03472181 84.76985365 113.71074768 84.80355872 135.38679218 84.82576752 C140.15410178 84.83073684 144.92141128 84.83578116 149.6887207 84.84091187 C150.87361653 84.84218254 152.05851236 84.84345321 153.27931412 84.84476238 C172.46240197 84.86611021 191.64531821 84.91509173 210.82831977 84.97515601 C230.52459671 85.03631847 250.22078522 85.07096159 269.91715592 85.08024073 C280.97523148 85.08614766 292.0330166 85.10386194 303.0909977 85.15162659 C312.51161555 85.19228096 321.93189555 85.20908482 331.35259721 85.19497377 C336.15653651 85.18851814 340.95975667 85.19326463 345.76358414 85.2288475 C350.1692168 85.26121751 354.57362749 85.26072245 358.97929289 85.23503047 C360.56559822 85.23140294 362.15198636 85.23941167 363.73815147 85.26081198 C375.36206761 85.40807823 385.19067291 83.34911923 394.30679494 75.57323027 C401.40382995 68.18596922 403.58466617 58.13942797 403.46484375 48.22079468 C402.66578401 40.03887309 397.53638204 32.32052642 391.52734375 26.87704468 C382.41448923 19.92304408 373.17300324 19.94786574 362.18313599 19.99327087 C360.54168422 19.98909553 358.90023534 19.98361691 357.2587918 19.97695106 C352.75828865 19.96250401 348.25796874 19.96673888 343.75745559 19.97411788 C338.8998097 19.97884908 334.04220348 19.96634009 329.18457031 19.95610046 C319.6718757 19.93890607 310.15924713 19.93807381 300.64654101 19.94331337 C292.91416338 19.94735519 285.18180526 19.94591136 277.44942856 19.94056511 C276.34880593 19.93981669 275.24818331 19.93906827 274.11420848 19.93829716 C271.87827206 19.93676568 269.64233565 19.93522733 267.40639924 19.9336822 C246.43897035 19.91995478 225.47157877 19.9253965 204.50415073 19.93686741 C185.32519387 19.94679951 166.14633349 19.93385991 146.96739151 19.90993322 C127.27096376 19.88554621 107.57458096 19.8759334 87.87813842 19.88258594 C76.82148233 19.88607911 65.76490044 19.88383965 54.70825577 19.86633492 C45.29573796 19.85161792 35.8833466 19.85097095 26.47083129 19.86840583 C21.66957587 19.87692239 16.86854638 19.87904929 12.0673027 19.86375427 C7.66911217 19.84991682 3.27134133 19.85465821 -1.12682487 19.87399351 C-2.71490805 19.87775672 -4.30302478 19.87482225 -5.8910781 19.86438186 C-19.34313705 19.78225666 -29.69477465 21.82453124 -38.8125 32.38095093 Z " fill="#000000" transform="translate(65.8125,0.619049072265625)"/>
</svg>
